<?xml version="1.0" encoding="UTF-8"?>
<svg xmlns="http://www.w3.org/2000/svg" height="100%" width="100%" version="1.1" viewBox="0 0 1600 1300">

<path d="m987 798c11-154-92-263-191-263-70-1-120-6-199 2 0 241-6 428-17 523 95 0 152 10 202 0 109-40 196-127 205-262zm-202 352c-156-10-229 10-337 30 92-321 65-604-1-729 141 32 313 23 458 53 195 41 225 364 145 506-50 80-167 140-265 140zm-340-840 547-12-24-79c-204-10-342-11-499 5zm775 770c-50-248-140-569-210-719l-579 14c-82 284-144 558-201 775-9 40 50 70 89 110-58-20-155-50-287-10 63.8-50 118-70 129-100 116-447 165-639 257-922-289 42-312 148-378 221 92-160 122-290 47.5-428 172 144 440 120 620 116 292-6 622-35 712-118-110 172-80 192-70 280-70-75-280-81-280-81 170 438 240 710 290 892 20 80 100 110 210 180-120-30-240-110-360-10 50-30 20-150 10-200z"/>
</svg>